# 3ds Max Wavefront OBJ Exporter v0.97b - (c)2007 guruware
# File Created: 08.09.2017 21:53:27

mtllib Dagger.mtl

#
# object Box001
#

v  -1568958.2500 153272.3438 1170756.8750
v  -1261083.0000 156727.2813 1170756.8750
v  -1266596.1250 173983.5781 1224427.0000
v  -1568979.2500 174740.1719 1224627.6250
v  -1266596.1250 210141.5938 1224427.0000
v  -1261083.0000 227397.8906 1170756.8750
v  -1568958.2500 230852.8125 1170756.8750
v  -1568979.2500 209388.7344 1224626.6250
v  -474140.3750 191583.3906 1170756.8750
v  -474140.3750 192541.7813 1170756.8750
v  -720772.6250 192435.1719 1219614.2500
v  -720772.6250 191690.0000 1219614.2500
v  -1021074.6250 191690.0000 1121899.5000
v  -1021074.6250 192435.1719 1121899.5000
v  -720772.6250 192435.1719 1121899.5000
v  -720772.6250 191690.0000 1121899.5000
v  -1721746.0000 190361.2656 1170756.8750
v  -1721746.0000 193763.9063 1170756.8750
v  -1721746.0000 192108.3281 1163368.5000
v  -1721746.0000 192016.8438 1163368.5000
v  -1266596.1250 173983.5781 1117086.7500
v  -1568979.2500 174740.1719 1116886.1250
v  -897758.5000 199231.1094 1170756.8750
v  -1721746.0000 192016.8438 1178145.2500
v  -1721746.0000 192108.3281 1178145.2500
v  -897758.5000 184894.0625 1170756.8750
v  -1021074.6250 191690.0000 1219614.2500
v  -1021074.6250 192435.1719 1219614.2500
v  -1568979.2500 209388.7344 1116887.1250
v  -1266596.1250 210141.5938 1117086.7500
v  -1568979.2500 178204.7344 1170756.8750
v  -1568979.2500 191690.0000 1219614.2500
v  -1649204.0000 191690.0000 1230937.6250
v  -1649204.0000 178204.7344 1170756.8750
v  -1568979.2500 192435.1719 1219614.2500
v  -1649204.0000 192435.1719 1230937.6250
v  -1568979.2500 205920.4375 1170756.8750
v  -1649204.0000 205920.4375 1170756.8750
v  -1568979.2500 192435.1719 1121899.5000
v  -1649204.0000 192435.1719 1110576.1250
v  -1568979.2500 191690.0000 1121899.5000
v  -1649204.0000 191690.0000 1110576.1250
v  -1685800.0000 191690.0000 1230937.6250
v  -1685800.0000 178204.7344 1170756.8750
v  -1685800.0000 192435.1719 1230937.6250
v  -1685800.0000 205920.4375 1170756.8750
v  -1685800.0000 192435.1719 1110576.1250
v  -1685800.0000 191690.0000 1110576.1250
v  -1715431.8750 191879.2031 1200376.1250
v  -1715431.8750 185242.1406 1170756.8750
v  -1715431.8750 192245.9688 1200376.1250
v  -1715431.8750 198883.0313 1170756.8750
v  -1715431.8750 192245.9688 1141137.6250
v  -1715431.8750 191879.2031 1141137.6250
v  -1261104.0000 181659.6563 1170756.8750
v  -1266596.1250 191690.0000 1219614.2500
v  -1261104.0000 202465.5156 1170756.8750
v  -1266596.1250 192435.1719 1219614.2500
v  -1266596.1250 191690.0000 1121899.5000
v  -1266596.1250 192435.1719 1121899.5000
# 60 vertices

vn 0.0012 -0.9952 0.0983
vn 0.0012 0.9952 0.0983
vn 0.0007 0.0000 1.0000
vn 0.1943 0.0000 0.9809
vn 0.0000 0.0000 -1.0000
vn -1.0000 0.0000 -0.0000
vn 0.0012 -0.9952 -0.0983
vn 0.0025 0.9996 -0.0289
vn 0.1943 0.0000 -0.9809
vn 0.0025 -0.9996 0.0289
vn 0.0025 0.9996 0.0289
vn 0.0000 0.0000 1.0000
vn 0.0007 0.0000 -1.0000
vn 0.0025 -0.9996 -0.0289
vn 0.0012 0.9952 -0.0983
vn 0.0048 -0.9977 0.0677
vn 0.1398 0.0000 0.9902
vn 0.0048 0.9977 0.0677
vn 0.0048 0.9977 -0.0677
vn 0.1398 0.0000 -0.9902
vn 0.0048 -0.9977 -0.0677
vn 0.0000 -0.9981 0.0613
vn 0.0000 0.9981 0.0613
vn 0.0000 0.9981 -0.0613
vn 0.0000 -0.9981 -0.0613
vn -0.0649 -0.9960 0.0612
vn -0.7179 0.0000 0.6961
vn -0.0649 0.9960 0.0612
vn -0.0649 0.9960 -0.0612
vn -0.7179 0.0000 -0.6961
vn -0.0649 -0.9960 -0.0612
vn -0.2166 -0.9744 0.0599
vn -0.9620 0.0000 0.2732
vn -0.2166 0.9744 0.0599
vn -0.2166 0.9744 -0.0599
vn -0.9620 0.0000 -0.2732
vn -0.2166 -0.9744 -0.0599
vn 0.0015 -0.9988 0.0491
vn -1.0000 -0.0000 -0.0000
vn 0.0015 0.9988 0.0491
vn -0.0000 0.0000 1.0000
vn 0.0015 -0.9988 -0.0491
vn -0.0000 0.0000 -1.0000
vn 0.0015 0.9988 -0.0491
vn 0.9936 0.0444 0.1034
vn 1.0000 0.0000 -0.0000
vn 0.9936 -0.0444 0.1034
vn 0.9936 -0.0444 -0.1034
vn 0.9936 0.0444 -0.1034
vn -1.0000 -0.0018 -0.0000
vn -1.0000 -0.0018 0.0000
vn -1.0000 0.0018 0.0000
vn -1.0000 0.0018 -0.0000
# 53 vertex normals

vt 1.0000 0.5000 0.0000
vt 0.7418 0.5000 0.0000
vt 0.7418 0.0000 0.0000
vt 1.0000 0.0000 0.0000
vt 0.2582 0.0000 0.0000
vt 0.2582 0.5000 0.0000
vt 0.0000 0.5000 0.0000
vt 0.0000 0.0000 0.0000
vt 0.2582 1.0000 0.0000
vt 0.0000 1.0000 0.0000
vt 0.5000 0.0000 0.0000
vt 0.5000 1.0000 0.0000
vt 0.7418 1.0000 0.0000
vt 1.0000 1.0000 0.0000
vt 0.5000 0.5000 0.0000
# 15 texture coords

g Box001
usemtl _crayfishdiffuse
s off
f -60/-15/-53 -59/-14/-53 -58/-13/-53 -57/-12/-53 
f -56/-11/-52 -55/-10/-52 -54/-9/-52 -53/-8/-52 
f -58/-11/-51 -56/-7/-51 -53/-6/-51 -57/-8/-51 
usemtl 02___Default
f -52/-5/-50 -51/-4/-50 -50/-6/-50 -49/-8/-50 
f -48/-5/-49 -47/-4/-49 -46/-6/-49 -45/-8/-49 
f -44/-5/-48 -43/-4/-48 -42/-6/-48 -41/-8/-48 
usemtl _crayfishdiffuse
f -40/-3/-47 -59/-14/-47 -60/-15/-47 -39/-2/-47 
usemtl 02___Default
f -46/-2/-46 -47/-4/-46 -38/-1/-46 -51/-15/-46 
f -45/-12/-45 -46/-2/-45 -51/-4/-45 -52/-5/-45 
f -37/-12/-48 -36/-2/-48 -43/-4/-48 -44/-5/-48 
f -35/-1/-44 -52/-9/-44 -49/-8/-44 -34/-5/-44 
f -50/-12/-43 -51/-15/-43 -38/-1/-43 -33/-5/-43 
f -49/-12/-42 -50/-2/-42 -33/-4/-42 -34/-5/-42 
usemtl _crayfishdiffuse
f -39/-12/-41 -32/-2/-41 -31/-3/-41 -40/-13/-41 
usemtl 02___Default
f -45/-6/-40 -52/-9/-40 -35/-1/-40 -48/-4/-40 
usemtl _crayfishdiffuse
f -31/-7/-39 -32/-6/-39 -54/-9/-39 -55/-10/-39 
usemtl 02___Default
f -30/-5/-38 -29/-12/-38 -28/-12/-38 -27/-5/-38 
f -29/-12/-37 -26/-2/-37 -25/-2/-37 -28/-12/-37 
f -26/-2/-36 -24/-4/-36 -23/-4/-36 -25/-2/-36 
f -24/-4/-35 -22/-6/-35 -21/-6/-35 -23/-4/-35 
f -22/-6/-34 -20/-8/-34 -19/-8/-34 -21/-6/-34 
f -20/-8/-33 -30/-5/-33 -27/-5/-33 -19/-8/-33 
f -27/-5/-32 -28/-12/-32 -18/-12/-32 -17/-5/-32 
f -28/-12/-42 -25/-2/-42 -16/-2/-42 -18/-12/-42 
f -25/-2/-31 -23/-4/-31 -15/-4/-31 -16/-2/-31 
f -23/-4/-30 -21/-6/-30 -14/-6/-30 -15/-4/-30 
f -21/-6/-49 -19/-8/-49 -13/-8/-49 -14/-6/-49 
f -19/-8/-29 -27/-5/-29 -17/-5/-29 -13/-8/-29 
f -17/-5/-28 -18/-12/-28 -12/-12/-28 -11/-5/-28 
f -18/-12/-27 -16/-2/-27 -10/-2/-27 -12/-12/-27 
f -16/-2/-26 -15/-4/-26 -9/-4/-26 -10/-2/-26 
f -15/-4/-25 -14/-6/-25 -8/-6/-25 -9/-4/-25 
f -14/-6/-24 -13/-8/-24 -7/-8/-24 -8/-6/-24 
f -13/-8/-23 -17/-5/-23 -11/-5/-23 -7/-8/-23 
f -11/-5/-22 -12/-12/-22 -37/-12/-22 -44/-5/-22 
f -12/-12/-21 -10/-2/-21 -36/-2/-21 -37/-12/-21 
f -10/-2/-20 -9/-4/-20 -43/-4/-20 -36/-2/-20 
f -9/-4/-19 -8/-6/-19 -42/-6/-19 -43/-4/-19 
f -8/-6/-18 -7/-8/-18 -41/-8/-18 -42/-6/-18 
f -7/-8/-17 -11/-5/-17 -44/-5/-17 -41/-8/-17 
f -6/-14/-16 -35/-1/-16 -34/-5/-16 -5/-13/-16 
f -30/-15/-15 -30/-15/-15 -29/-12/-15 -29/-12/-15 
f -33/-5/-14 -38/-1/-14 -4/-10/-14 -3/-11/-14 
f -26/-8/-15 -26/-8/-15 -24/-9/-15 -24/-9/-15 
f -34/-5/-13 -33/-4/-13 -3/-7/-13 -5/-11/-13 
f -26/-6/-15 -26/-6/-15 -29/-8/-15 -29/-8/-15 
f -48/-4/-12 -35/-1/-12 -6/-14/-12 -2/-3/-12 
f -20/-2/-15 -20/-2/-15 -30/-15/-15 -30/-15/-15 
f -22/-2/-15 -22/-2/-15 -20/-12/-15 -20/-12/-15 
f -47/-4/-11 -48/-5/-11 -2/-13/-11 -1/-3/-11 
f -24/-9/-15 -24/-9/-15 -22/-6/-15 -22/-6/-15 
f -1/-7/-10 -4/-10/-10 -38/-1/-10 -47/-4/-10 
f -6/-14/-9 -5/-13/-9 -58/-13/-9 -59/-14/-9 
f -5/-11/-8 -3/-7/-8 -56/-7/-8 -58/-11/-8 
f -3/-11/-7 -4/-10/-7 -55/-10/-7 -56/-11/-7 
f -4/-10/-6 -1/-7/-6 -31/-7/-6 -55/-10/-6 
f -1/-3/-8 -2/-13/-8 -40/-13/-8 -31/-3/-8 
f -2/-3/-5 -6/-14/-5 -59/-14/-5 -40/-3/-5 
f -29/-12/-4 -30/-15/-4 -60/-15/-4 -57/-12/-4 
f -30/-15/-3 -20/-2/-3 -39/-2/-3 -60/-15/-3 
f -20/-12/-48 -22/-2/-48 -32/-2/-48 -39/-12/-48 
f -22/-6/-2 -24/-9/-2 -54/-9/-2 -32/-6/-2 
f -24/-9/-1 -26/-8/-1 -53/-8/-1 -54/-9/-1 
f -26/-6/-48 -29/-8/-48 -57/-8/-48 -53/-6/-48 
# 64 polygons

#
# object Box002
#

v  -1271027.3750 169885.8594 1260229.1250
v  -1236388.1250 169885.8594 1260229.1250
v  -1236388.1250 169885.8594 1403046.1250
v  -1271027.3750 169885.8594 1403046.1250
v  -1236388.1250 214778.0000 1403046.1250
v  -1236388.1250 214778.0000 1260229.1250
v  -1271027.3750 214778.0000 1260229.1250
v  -1271027.3750 214778.0000 1403046.1250
v  -1271027.3750 184604.4063 1441133.0000
v  -1236388.1250 184604.4063 1441133.0000
v  -1236388.1250 200059.4688 1441133.0000
v  -1271027.3750 200059.4688 1441133.0000
v  -1236388.1250 213142.6094 1424205.5000
v  -1236388.1250 208236.4375 1436901.1250
v  -1236388.1250 171521.2500 1424205.5000
v  -1236388.1250 176427.4375 1436901.1250
v  -1236388.1250 184604.4063 873589.7500
v  -1271027.3750 184604.4063 873589.7500
v  -1271027.3750 200059.4688 873589.7500
v  -1236388.1250 200059.4688 873589.7500
v  -1271027.3750 214778.0000 1054493.6250
v  -1271027.3750 214778.0000 911676.6250
v  -1271027.3750 213142.6094 890517.2500
v  -1271027.3750 208236.4375 877821.6250
v  -1271027.3750 169885.8594 1054493.6250
v  -1271027.3750 169885.8594 911676.6250
v  -1271027.3750 171521.2500 890517.2500
v  -1271027.3750 176427.4375 877821.6250
v  -1236388.1250 169885.8594 911676.6250
v  -1236388.1250 169885.8594 1054493.6250
v  -1236388.1250 214778.0000 911676.6250
v  -1236388.1250 214778.0000 1054493.6250
v  -1236388.1250 171521.2500 890517.2500
v  -1236388.1250 176427.4375 877821.6250
v  -1236388.1250 208236.4375 877821.6250
v  -1236388.1250 213142.6094 890517.2500
v  -1271027.3750 171521.2500 1424205.5000
v  -1271027.3750 176427.4375 1436901.1250
v  -1271027.3750 208236.4375 1436901.1250
v  -1271027.3750 213142.6094 1424205.5000
v  -1236388.1250 148502.3125 1157361.3750
v  -1236388.1250 151686.5625 1163786.6250
v  -1271027.3750 151686.5625 1163786.6250
v  -1271027.3750 148502.3125 1157361.3750
v  -1271027.3750 236161.5625 1157361.3750
v  -1271027.3750 232977.3125 1163786.6250
v  -1236388.1250 232977.3125 1163786.6250
v  -1236388.1250 236161.5625 1157361.3750
v  -1271027.3750 232977.3125 1150936.1250
v  -1271027.3750 151686.5625 1150936.1250
v  -1236388.1250 151686.5625 1150936.1250
v  -1236388.1250 232977.3125 1150936.1250
v  -1236388.1250 167863.7188 1222971.2500
v  -1271027.3750 167863.7188 1222971.2500
v  -1271027.3750 216800.1563 1222971.2500
v  -1236388.1250 216800.1563 1222971.2500
v  -1271027.3750 216800.1563 1091751.5000
v  -1271027.3750 167863.7188 1091751.5000
v  -1236388.1250 161797.2813 1123899.0000
v  -1271027.3750 161797.2813 1123899.0000
v  -1271027.3750 222866.5938 1123899.0000
v  -1236388.1250 222866.5938 1123899.0000
v  -1271027.3750 222866.5938 1190823.7500
v  -1271027.3750 161797.2813 1190823.7500
v  -1236388.1250 161797.2813 1190823.7500
v  -1236388.1250 222866.5938 1190823.7500
v  -1236388.1250 167863.7188 1091751.5000
v  -1236388.1250 216800.1563 1091751.5000
# 68 vertices

vn 0.0000 -1.0000 -0.0000
vn 0.0000 1.0000 -0.0000
vn 0.0000 0.0000 1.0000
vn 1.0000 0.0000 -0.0000
vn 0.0000 0.0000 -1.0000
vn -1.0000 0.0000 -0.0000
vn 0.0000 -0.6149 0.7886
vn 0.0000 0.6149 0.7886
vn 0.0000 -0.6149 -0.7886
vn 0.0000 0.6149 -0.7886
vn 0.0000 -0.9903 0.1391
vn 0.0000 0.9903 0.1391
vn 0.0000 -0.7186 -0.6954
vn 0.0000 0.7186 -0.6954
vn 0.0000 -0.8986 0.4388
vn 0.0000 -0.7186 0.6954
vn 0.0000 0.8986 0.4388
vn 0.0000 0.7186 0.6954
vn 0.0000 -0.8986 -0.4388
vn 0.0000 -0.9903 -0.1391
vn 0.0000 0.8986 -0.4388
vn 0.0000 0.9903 -0.1391
vn 0.0000 -0.9806 -0.1961
vn 0.0000 -0.9806 0.1961
vn 0.0000 0.9806 0.1961
vn 0.0000 0.9806 -0.1961
vn 0.0000 -0.7071 -0.7071
vn 0.0000 -0.1961 -0.9806
vn 0.0000 -0.7071 0.7071
vn 0.0000 -0.1961 0.9806
vn 0.0000 0.7071 0.7071
vn 0.0000 0.1961 0.9806
vn 0.0000 0.7071 -0.7071
vn 0.0000 0.1961 -0.9806
# 34 vertex normals

vt 1.0000 0.3187 0.0000
vt 0.0000 0.3187 0.0000
vt 0.0000 0.0671 0.0000
vt 1.0000 0.0671 0.0000
vt 0.0000 0.3279 0.0000
vt 1.0000 0.3279 0.0000
vt 1.0000 0.6721 0.0000
vt 0.0000 0.6721 0.0000
vt 0.3187 1.0000 0.0000
vt 0.0671 1.0000 0.0000
vt 0.0298 0.9636 0.0000
vt 0.0075 0.8543 0.0000
vt 0.3187 0.0000 0.0000
vt 0.0671 0.0000 0.0000
vt 0.0298 0.0364 0.0000
vt 0.0075 0.1457 0.0000
vt 1.0000 0.9329 0.0000
vt 0.0000 0.9329 0.0000
vt 0.0000 0.6813 0.0000
vt 1.0000 0.6813 0.0000
vt 0.6813 0.0000 0.0000
vt 0.9329 0.0000 0.0000
vt 0.9702 0.0364 0.0000
vt 0.9925 0.1457 0.0000
vt 0.6813 1.0000 0.0000
vt 0.9925 0.8543 0.0000
vt 0.9702 0.9636 0.0000
vt 0.9329 1.0000 0.0000
vt 0.0000 0.5000 0.0000
vt 0.0000 0.4887 0.0000
vt 1.0000 0.4887 0.0000
vt 1.0000 0.5000 0.0000
vt 0.5000 1.0000 0.0000
vt 0.4887 1.0000 0.0000
vt 0.4887 0.0000 0.0000
vt 0.5000 0.0000 0.0000
vt 0.0000 0.5113 0.0000
vt 1.0000 0.5113 0.0000
vt 0.5113 1.0000 0.0000
vt 0.5113 0.0000 0.0000
vt 0.0000 0.3754 0.0000
vt 1.0000 0.3754 0.0000
vt 0.3754 1.0000 0.0000
vt 0.3754 0.0000 0.0000
vt 0.0000 0.5680 0.0000
vt 1.0000 0.5680 0.0000
vt 0.5680 1.0000 0.0000
vt 0.5680 0.0000 0.0000
vt 0.0000 0.4320 0.0000
vt 1.0000 0.4320 0.0000
vt 0.4320 1.0000 0.0000
vt 0.4320 0.0000 0.0000
vt 0.0000 0.6246 0.0000
vt 1.0000 0.6246 0.0000
vt 0.6246 1.0000 0.0000
vt 0.6246 0.0000 0.0000
vt 0.0000 -0.6215 0.0000
vt 0.0000 -1.0962 0.0000
vt 1.0000 -1.0962 0.0000
vt 1.0000 -0.6215 0.0000
vt 1.0000 1.6215 0.0000
vt 1.0000 2.0962 0.0000
vt 0.0000 2.0962 0.0000
vt 0.0000 1.6215 0.0000
vt 0.0000 -0.1468 0.0000
vt 1.0000 -0.1468 0.0000
vt 1.0000 1.1468 0.0000
vt 0.0000 1.1468 0.0000
# 68 texture coords

g Box002
usemtl 02___Default
s off
f -68/-68/-34 -67/-67/-34 -66/-66/-34 -65/-65/-34 
f -64/-65/-33 -63/-68/-33 -62/-67/-33 -61/-66/-33 
f -60/-64/-32 -59/-63/-32 -58/-62/-32 -57/-61/-32 
f -63/-60/-31 -64/-59/-31 -56/-58/-31 -55/-57/-31 
f -63/-60/-31 -55/-57/-31 -58/-61/-31 -67/-56/-31 
f -66/-55/-31 -67/-56/-31 -58/-61/-31 -54/-54/-31 
f -53/-53/-31 -54/-54/-31 -58/-61/-31 -59/-64/-31 
f -52/-64/-30 -51/-63/-30 -50/-62/-30 -49/-61/-30 
f -48/-60/-29 -47/-59/-29 -46/-58/-29 -45/-57/-29 
f -48/-60/-29 -45/-57/-29 -50/-61/-29 -44/-56/-29 
f -43/-55/-29 -44/-56/-29 -50/-61/-29 -42/-54/-29 
f -41/-53/-29 -42/-54/-29 -50/-61/-29 -51/-64/-29 
f -43/-52/-34 -40/-51/-34 -39/-50/-34 -44/-49/-34 
f -38/-52/-33 -47/-51/-33 -48/-50/-33 -37/-49/-33 
f -39/-48/-31 -40/-47/-31 -36/-46/-31 -35/-45/-31 
f -39/-48/-31 -35/-45/-31 -52/-63/-31 -37/-44/-31 
f -52/-63/-31 -49/-62/-31 -34/-43/-31 -33/-42/-31 
f -52/-63/-31 -33/-42/-31 -38/-41/-31 -37/-44/-31 
f -68/-48/-29 -65/-47/-29 -32/-46/-29 -31/-45/-29 
f -68/-48/-29 -31/-45/-29 -60/-63/-29 -62/-44/-29 
f -60/-63/-29 -57/-62/-29 -30/-43/-29 -29/-42/-29 
f -60/-63/-29 -29/-42/-29 -61/-41/-29 -62/-44/-29 
f -28/-40/-28 -27/-39/-28 -26/-38/-28 -25/-37/-28 
f -24/-40/-27 -23/-39/-27 -22/-38/-27 -21/-37/-27 
f -21/-36/-31 -22/-35/-31 -27/-34/-31 -28/-33/-31 
f -24/-36/-29 -20/-35/-29 -19/-34/-29 -25/-33/-29 
f -18/-32/-26 -28/-40/-26 -25/-37/-26 -19/-31/-26 
f -20/-32/-25 -24/-40/-25 -21/-37/-25 -17/-31/-25 
f -17/-30/-31 -21/-36/-31 -28/-33/-31 -18/-29/-31 
f -23/-30/-29 -24/-36/-29 -25/-33/-29 -26/-29/-29 
f -16/-28/-24 -67/-67/-24 -68/-68/-24 -15/-27/-24 
f -14/-28/-23 -62/-67/-23 -63/-68/-23 -13/-27/-23 
f -13/-26/-31 -63/-60/-31 -67/-56/-31 -16/-25/-31 
f -12/-26/-29 -48/-60/-29 -44/-56/-29 -11/-25/-29 
f -10/-24/-22 -18/-32/-22 -19/-31/-22 -9/-23/-22 
f -8/-24/-21 -20/-32/-21 -17/-31/-21 -7/-23/-21 
f -7/-22/-31 -17/-30/-31 -18/-29/-31 -10/-21/-31 
f -6/-22/-29 -23/-30/-29 -26/-29/-29 -5/-21/-29 
f -4/-20/-20 -16/-28/-20 -15/-27/-20 -5/-19/-20 
f -27/-39/-19 -4/-20/-19 -5/-19/-19 -26/-38/-19 
f -6/-20/-18 -14/-28/-18 -13/-27/-18 -3/-19/-18 
f -23/-39/-17 -6/-20/-17 -3/-19/-17 -22/-38/-17 
f -3/-18/-31 -13/-26/-31 -16/-25/-31 -4/-17/-31 
f -22/-35/-31 -3/-18/-31 -4/-17/-31 -27/-34/-31 
f -8/-18/-29 -12/-26/-29 -11/-25/-29 -9/-17/-29 
f -20/-35/-29 -8/-18/-29 -9/-17/-29 -19/-34/-29 
f -2/-16/-16 -10/-24/-16 -9/-23/-16 -11/-15/-16 
f -39/-50/-15 -2/-16/-15 -11/-15/-15 -44/-49/-15 
f -12/-16/-14 -8/-24/-14 -7/-23/-14 -1/-15/-14 
f -48/-50/-13 -12/-16/-13 -1/-15/-13 -37/-49/-13 
f -1/-14/-31 -7/-22/-31 -10/-21/-31 -2/-13/-31 
f -37/-44/-31 -1/-14/-31 -2/-13/-31 -39/-48/-31 
f -14/-14/-29 -6/-22/-29 -5/-21/-29 -15/-13/-29 
f -62/-44/-29 -14/-14/-29 -15/-13/-29 -68/-48/-29 
f -36/-12/-12 -40/-11/-12 -43/-10/-12 -42/-9/-12 
f -32/-12/-11 -65/-11/-11 -66/-10/-11 -54/-9/-11 
f -56/-8/-10 -64/-7/-10 -61/-6/-10 -29/-5/-10 
f -46/-8/-9 -47/-7/-9 -38/-6/-9 -33/-5/-9 
f -35/-4/-8 -36/-12/-8 -42/-9/-8 -41/-3/-8 
f -52/-64/-7 -35/-4/-7 -41/-3/-7 -51/-63/-7 
f -31/-4/-6 -32/-12/-6 -54/-9/-6 -53/-3/-6 
f -60/-64/-5 -31/-4/-5 -53/-3/-5 -59/-63/-5 
f -55/-2/-4 -56/-8/-4 -29/-5/-4 -30/-1/-4 
f -58/-62/-3 -55/-2/-3 -30/-1/-3 -57/-61/-3 
f -45/-2/-2 -46/-8/-2 -33/-5/-2 -34/-1/-2 
f -50/-62/-1 -45/-2/-1 -34/-1/-1 -49/-61/-1 
# 66 polygons

